<svg width="272" height="40" viewBox="0 0 272 40" fill="none" xmlns="http://www.w3.org/2000/svg">
<path d="M31.9087 4.89428C32.7683 3.4206 34.1192 2.06972 35.8385 1.21007C38.5403 -0.0179961 42.1017 0.596039 44.435 2.43814C46.5227 4.28025 47.7508 6.982 47.1368 9.92937C47.7508 9.92937 48.1192 9.56095 48.7333 9.31534C52.049 8.33288 55.4876 9.31534 57.6982 12.1399C59.2947 14.2276 59.7859 17.2978 58.6806 19.6311C58.3122 20.8592 57.4526 21.8417 56.4701 22.9469L56.7157 23.1925C59.7859 23.4381 62.8561 25.6487 63.8385 28.7188C64.821 31.789 64.0841 34.8592 61.7508 37.0697C59.9087 38.9118 57.6982 39.5259 55.242 39.2802H9.0666C5.13678 39.2802 2.31222 37.6838 0.96134 34.368C-0.26673 31.5434 0.347305 27.8592 2.55783 25.6487C4.03151 24.175 5.87362 23.561 7.83853 23.1925C5.62801 21.1048 4.52274 18.2802 5.13678 15.2101C5.38239 12.9995 7.3473 10.2978 9.80344 9.43814C11.8912 8.5785 14.7157 8.82411 16.6806 9.80657C16.0666 6.49078 17.5403 3.54341 20.3648 1.7013C22.821 0.104811 26.628 0.104811 29.0841 1.94692C30.3122 2.68376 31.2947 3.91183 31.9087 4.89428Z" fill="white"/>
<path d="M44.9294 6.12277C44.5609 5.26312 43.9469 4.52628 43.2101 3.91225C41.368 2.31576 38.2978 2.07014 36.0873 3.29821C33.9996 4.28067 32.7715 6.614 32.7715 8.82453H35.4732C35.7189 9.07014 35.8417 9.07014 36.0873 9.19295C34.982 10.0526 32.8943 10.7894 33.3855 12.5087L36.2101 30.6842L44.1925 12.7544C45.4206 10.6666 46.0346 8.21049 44.9294 6.12277Z" fill="#645FA9"/>
<path d="M27.8641 30.4385L31.1799 9.68413C31.4255 8.21044 30.9343 6.85957 30.3203 5.6315C29.7062 4.28062 28.4782 3.42097 27.2501 2.80694C25.0396 1.82448 22.0922 2.43851 20.4957 4.03501C18.8992 5.6315 18.0396 8.08764 18.8992 10.5438L27.0045 28.7192L27.8641 30.4385Z" fill="#C8234A"/>
<path d="M56.844 14.2277C57.8264 16.0698 57.7036 18.8943 56.4756 20.4908C55.6159 21.7189 54.3878 22.3329 53.4054 23.1926L36.458 34.8592L36.7036 34.2452L45.6685 14.1049C47.1422 11.6487 49.5984 10.4207 52.1773 10.7891C54.0194 11.2803 55.8615 12.5084 56.844 14.2277Z" fill="#0088CF"/>
<path d="M8.9534 21.8416L27.7429 34.7363H27.9885L18.6552 14.1048C17.0587 11.403 13.7429 10.1749 10.6727 11.2802C8.83059 12.1399 7.35691 13.7363 6.98849 15.5785C6.00603 17.9118 6.86568 20.3679 8.9534 21.8416Z" fill="#F26F21"/>
<path d="M60.9003 35.3507C62.374 33.7542 62.4968 30.8068 61.76 29.0875C61.1459 27.6138 59.9178 26.3858 58.4442 25.7717C56.6021 24.9121 54.1459 25.1577 52.5494 26.1402L35.8477 37.684H55.8652C57.8301 37.684 59.4266 36.9472 60.9003 35.3507Z" fill="#0DB04B"/>
<path d="M28.2292 37.6841L11.5274 25.8947C9.93091 24.9122 7.47477 24.6666 5.63267 25.5263C4.15898 26.1403 2.93091 27.3684 2.31688 28.842C1.33442 30.9298 1.70284 33.5087 3.17653 35.1052C4.4046 36.7017 6.2467 37.5613 8.33442 37.5613L28.2292 37.6841Z" fill="#FCB813"/>
<path d="M103.136 15.4566C102.277 11.7724 99.4523 10.79 96.0137 10.5443C85.2066 9.56189 83.3645 17.6672 83.3645 21.1058C83.3645 27.0005 84.961 31.6672 95.6452 31.6672C97.733 31.6672 103.014 29.5794 103.014 26.3865H118.365C117.75 36.211 101.417 38.4215 94.2944 38.4215C79.5575 38.4215 66.9084 35.7198 67.5224 21.1058C67.8909 10.6671 77.7154 3.42153 97.2417 3.91276C108.049 4.15837 118.487 7.59697 118.487 15.3338H103.136V15.4566Z" fill="white"/>
<path d="M256.156 15.4557C255.296 11.7715 252.472 10.7891 249.033 10.5435C238.226 9.561 236.384 17.6663 236.384 20.982C236.384 26.8768 237.981 31.5434 248.665 31.5434C250.753 31.5434 256.033 29.4557 256.033 26.2627H271.384C270.77 36.0873 254.437 38.2978 247.314 38.2978C232.577 38.2978 219.928 35.5961 220.542 20.982C220.91 10.5435 230.735 3.29784 250.261 3.78907C261.068 4.03469 271.63 7.47328 271.63 15.2101H256.156V15.4557Z" fill="white"/>
<path d="M121.313 4.64926H141.085L158.033 28.351H158.278V4.64926H170.927V37.4388H152.015L134.331 13.737H134.085V37.4388H121.313C121.313 37.5616 121.313 4.64926 121.313 4.64926Z" fill="white"/>
<path d="M174.731 4.64926H198.802C210.468 4.64926 217.1 7.96505 217.1 12.7545C217.1 15.5791 214.275 19.2633 207.889 20.2458C215.381 20.6142 218.328 25.5265 218.328 28.351C218.328 34.2458 211.819 37.3159 198.802 37.3159H174.731V4.64926ZM188.854 17.544H192.907C199.047 17.544 202.24 17.1756 202.24 14.4738C202.24 11.7721 199.538 10.7896 194.135 10.7896H188.977V17.544H188.854ZM188.854 30.8072H192.907C200.275 30.8072 203.1 29.9475 203.1 27.4914C203.1 24.7896 199.661 23.8072 194.135 23.8072H188.977V30.6843H188.854V30.8072Z" fill="white"/>
</svg>
