<svg width="24" height="24" viewBox="0 0 24 24" fill="none" xmlns="http://www.w3.org/2000/svg">
<path d="M3.42857 5.71429C3.42857 5.0831 3.94026 4.57143 4.57143 4.57143H5.71429C6.34546 4.57143 6.85714 5.0831 6.85714 5.71429V6.85714C6.85714 7.48833 6.34546 8 5.71429 8H4.57143C3.94026 8 3.42857 7.48833 3.42857 6.85714V5.71429Z" fill="white"/>
<path d="M4.57143 10.2857C3.94026 10.2857 3.42857 10.7974 3.42857 11.4286V12.5714C3.42857 13.2026 3.94026 13.7143 4.57143 13.7143H5.71429C6.34546 13.7143 6.85714 13.2026 6.85714 12.5714V11.4286C6.85714 10.7974 6.34546 10.2857 5.71429 10.2857H4.57143Z" fill="white"/>
<path d="M3.42857 17.1429C3.42857 16.5117 3.94026 16 4.57143 16H5.71429C6.34546 16 6.85714 16.5117 6.85714 17.1429V18.2857C6.85714 18.9169 6.34546 19.4286 5.71429 19.4286H4.57143C3.94026 19.4286 3.42857 18.9169 3.42857 18.2857V17.1429Z" fill="white"/>
<path d="M10.8571 4.57143C9.91037 4.57143 9.14286 5.33894 9.14286 6.28571C9.14286 7.23249 9.91037 8 10.8571 8H18.8571C19.8039 8 20.5714 7.23249 20.5714 6.28571C20.5714 5.33894 19.8039 4.57143 18.8571 4.57143H10.8571Z" fill="white"/>
<path d="M9.14286 12C9.14286 11.0532 9.91037 10.2857 10.8571 10.2857H18.8571C19.8039 10.2857 20.5714 11.0532 20.5714 12C20.5714 12.9468 19.8039 13.7143 18.8571 13.7143H10.8571C9.91037 13.7143 9.14286 12.9468 9.14286 12Z" fill="white"/>
<path d="M10.8571 16C9.91037 16 9.14286 16.7675 9.14286 17.7143C9.14286 18.6611 9.91037 19.4286 10.8571 19.4286H18.8571C19.8039 19.4286 20.5714 18.6611 20.5714 17.7143C20.5714 16.7675 19.8039 16 18.8571 16H10.8571Z" fill="white"/>
<path fill-rule="evenodd" clip-rule="evenodd" d="M3.42857 0C1.53502 0 0 1.53502 0 3.42857V20.5714C0 22.465 1.53502 24 3.42857 24H20.5714C22.465 24 24 22.465 24 20.5714V3.42857C24 1.53502 22.465 0 20.5714 0H3.42857ZM20.5714 1.14286H3.42857C2.16619 1.14286 1.14286 2.16621 1.14286 3.42857V20.5714C1.14286 21.8338 2.16619 22.8571 3.42857 22.8571H20.5714C21.8338 22.8571 22.8571 21.8338 22.8571 20.5714V3.42857C22.8571 2.16621 21.8338 1.14286 20.5714 1.14286Z" fill="white"/>
</svg>
