<svg width="24" height="24" viewBox="0 0 24 24" fill="none" xmlns="http://www.w3.org/2000/svg">
<path d="M0 0H2.85716V19.8128L6.85329 13.8186L10.7703 16.2667L13.7613 9.28763L17.2997 11.3096L20.9933 4.3328L17.846 5.3012C17.5821 5.38241 17.3023 5.23428 17.2211 4.97035C17.1399 4.70642 17.288 4.42663 17.552 4.34542L21.853 3.02203C22.1169 2.94082 22.3967 3.08895 22.4779 3.35288L23.8013 7.65388C23.8825 7.91781 23.7344 8.19761 23.4704 8.27881C23.2065 8.36002 22.9267 8.2119 22.8455 7.94797L21.8771 4.80069L17.7003 12.6902L14.2387 10.7122L11.2297 17.7331L7.14671 15.1812L3.17238 21.1427H23.9994V23.9999H0V0Z" fill="white"/>
</svg>
