<svg width="24" height="18" viewBox="0 0 24 18" fill="none" xmlns="http://www.w3.org/2000/svg">
<path d="M8.88889 3.80385L16.8889 9L8.88889 14.1962V3.80385Z" fill="white"/>
<path fill-rule="evenodd" clip-rule="evenodd" d="M0 4C0 1.79086 1.59188 0 3.55556 0H20.4444C22.4081 0 24 1.79086 24 4V14C24 16.2091 22.4081 18 20.4444 18H3.55555C1.59188 18 0 16.2091 0 14V4ZM3.55556 1H20.4444C21.9172 1 23.1111 2.34315 23.1111 4V14C23.1111 15.6569 21.9172 17 20.4444 17H3.55555C2.0828 17 0.888889 15.6569 0.888889 14V4C0.888889 2.34315 2.0828 1 3.55556 1Z" fill="white"/>
</svg>
