<svg width="27" height="27" viewBox="0 0 27 27" fill="none" xmlns="http://www.w3.org/2000/svg">
<path fill-rule="evenodd" clip-rule="evenodd" d="M17.4079 18.4079C15.5616 20.022 13.145 21 10.5 21C4.70101 21 0 16.299 0 10.5C0 4.70101 4.70101 0 10.5 0C16.299 0 21 4.70101 21 10.5C21 12.9335 20.1721 15.1737 18.7827 16.9542L26.7071 24.8787C27.0976 25.2692 27.0976 25.9024 26.7071 26.2929C26.3166 26.6834 25.6834 26.6834 25.2929 26.2929L17.4079 18.4079ZM16.5992 16.4203C15.0545 18.0114 12.8927 19 10.5 19C5.80558 19 2 15.1944 2 10.5C2 5.80558 5.80558 2 10.5 2C15.1944 2 19 5.80558 19 10.5C19 12.704 18.1611 14.7121 16.7853 16.2224C16.7583 16.2443 16.7322 16.2678 16.7071 16.2929C16.667 16.333 16.631 16.3756 16.5992 16.4203Z" fill="#DFDFDF"/>
</svg>
